<svg width="24" height="25" viewBox="0 0 24 25" fill="none" xmlns="http://www.w3.org/2000/svg">
<path d="M18.6747 23.0399C17.3872 24.3023 15.9668 24.1055 14.6129 23.5103C13.1735 22.9031 11.8576 22.8647 10.3374 23.5103C8.44425 24.3359 7.4395 24.0959 6.29936 23.0399C-0.137696 16.3439 0.812423 6.14391 8.12834 5.75991C9.90268 5.85591 11.145 6.75111 12.1901 6.82551C13.7435 6.50631 15.2305 5.59191 16.8932 5.71191C18.8908 5.87511 20.3849 6.67191 21.3825 8.1047C17.2732 10.6007 18.2471 16.0727 22.0215 17.6087C21.2661 19.6127 20.297 21.5927 18.6723 23.0567L18.6747 23.0399ZM12.0476 5.68791C11.8552 2.71192 14.2424 0.263925 16.9882 0.0239258C17.3659 3.45592 13.9003 6.02391 12.0476 5.68791Z" fill="white"/>
</svg>
