<svg width="23" height="25" viewBox="0 0 23 25" fill="none" xmlns="http://www.w3.org/2000/svg">
<path d="M22.5798 4.05413L21.0062 5.2846C18.8605 2.54185 15.5235 0.78125 11.7763 0.78125C5.30585 0.78125 0.0686833 6.01284 0.0603127 12.486C0.0519422 18.9648 5.30027 24.2188 11.7763 24.2188C16.8349 24.2188 21.1457 21.01 22.7863 16.5151C22.8282 16.3979 22.7668 16.2667 22.6496 16.2277L21.0676 15.6836C21.0124 15.6647 20.952 15.6681 20.8994 15.6931C20.8467 15.7182 20.8059 15.7628 20.7858 15.8175C20.7355 15.957 20.6797 16.0965 20.6211 16.2333C20.1384 17.3772 19.4465 18.404 18.5648 19.2857C17.6902 20.1619 16.6547 20.8611 15.5151 21.3449C14.3349 21.8443 13.0765 22.0982 11.7819 22.0982C10.4844 22.0982 9.22884 21.8443 8.04859 21.3449C6.9079 20.8632 5.87203 20.1637 4.99893 19.2857C4.12198 18.4112 3.42355 17.3745 2.94257 16.2333C2.44313 15.0502 2.18922 13.7946 2.18922 12.4972C2.18922 11.1998 2.44313 9.9442 2.94257 8.76116C3.42527 7.61719 4.11723 6.5904 4.99893 5.70871C5.88063 4.82701 6.90741 4.13504 8.04859 3.64955C9.22884 3.15011 10.4872 2.89621 11.7819 2.89621C13.0793 2.89621 14.3349 3.15011 15.5151 3.64955C16.6558 4.13126 17.6917 4.83069 18.5648 5.70871C18.841 5.98493 19.1005 6.2779 19.3404 6.58482L17.6608 7.89621C17.6275 7.92192 17.6022 7.95648 17.5878 7.99593C17.5733 8.03538 17.5703 8.07811 17.579 8.11921C17.5878 8.16031 17.6079 8.1981 17.6372 8.22825C17.6665 8.2584 17.7036 8.27967 17.7445 8.28962L22.644 9.4894C22.7835 9.52288 22.9202 9.41685 22.9202 9.27455L22.9426 4.22712C22.9398 4.04297 22.7249 3.93973 22.5798 4.05413Z" fill="white"/>
</svg>
