<svg width="371" height="424" viewBox="0 0 371 424" fill="none" xmlns="http://www.w3.org/2000/svg">
<rect x="66" y="86" width="235" height="311" rx="25" fill="white" stroke="#191D31" stroke-width="6"/>
<g filter="url(#filter0_d_129_15211)">
<rect x="80" y="296" width="207" height="44" rx="12" fill="white"/>
</g>
<rect x="86" y="302" width="32" height="32" rx="10" fill="#EEF1F8"/>
<rect x="128" y="313" width="112" height="10" rx="5" fill="#E7EAF1"/>
<g filter="url(#filter1_d_129_15211)">
<rect x="80" y="242" width="207" height="44" rx="12" fill="white"/>
</g>
<rect x="86" y="248" width="32" height="32" rx="10" fill="#EEF1F8"/>
<rect x="128" y="206" width="112" height="16" rx="8" fill="#B1B8C8"/>
<rect x="128" y="259" width="112" height="10" rx="5" fill="#E7EAF1"/>
<circle cx="184" cy="156" r="35" fill="#EEF1F8"/>
<g clip-path="url(#clip0_129_15211)">
<path d="M184 156C187.682 156 190.667 153.015 190.667 149.333C190.667 145.651 187.682 142.667 184 142.667C180.318 142.667 177.333 145.651 177.333 149.333C177.333 153.015 180.318 156 184 156Z" fill="#B1B8C8"/>
<path d="M184 159.333C177.32 159.333 171.88 163.813 171.88 169.333C171.88 169.707 172.173 170 172.547 170H195.453C195.827 170 196.12 169.707 196.12 169.333C196.12 163.813 190.68 159.333 184 159.333Z" fill="#B1B8C8"/>
</g>
<g filter="url(#filter2_d_129_15211)">
<circle cx="301" cy="86" r="30" fill="white"/>
</g>
<g clip-path="url(#clip1_129_15211)">
<path d="M301 72.6665C293.653 72.6665 287.667 78.6532 287.667 85.9998C287.667 93.3465 293.653 99.3332 301 99.3332C308.347 99.3332 314.333 93.3465 314.333 85.9998C314.333 78.6532 308.347 72.6665 301 72.6665ZM307.373 82.9332L299.813 90.4932C299.627 90.6798 299.373 90.7865 299.107 90.7865C298.84 90.7865 298.587 90.6798 298.4 90.4932L294.627 86.7198C294.24 86.3332 294.24 85.6932 294.627 85.3065C295.013 84.9198 295.653 84.9198 296.04 85.3065L299.107 88.3732L305.96 81.5198C306.347 81.1332 306.987 81.1332 307.373 81.5198C307.76 81.9065 307.76 82.5332 307.373 82.9332Z" fill="#1D272F"/>
</g>
<defs>
<filter id="filter0_d_129_15211" x="0" y="220" width="367" height="204" filterUnits="userSpaceOnUse" color-interpolation-filters="sRGB">
<feFlood flood-opacity="0" result="BackgroundImageFix"/>
<feColorMatrix in="SourceAlpha" type="matrix" values="0 0 0 0 0 0 0 0 0 0 0 0 0 0 0 0 0 0 127 0" result="hardAlpha"/>
<feOffset dy="4"/>
<feGaussianBlur stdDeviation="40"/>
<feComposite in2="hardAlpha" operator="out"/>
<feColorMatrix type="matrix" values="0 0 0 0 0.654902 0 0 0 0 0.662745 0 0 0 0 0.717647 0 0 0 0.25 0"/>
<feBlend mode="normal" in2="BackgroundImageFix" result="effect1_dropShadow_129_15211"/>
<feBlend mode="normal" in="SourceGraphic" in2="effect1_dropShadow_129_15211" result="shape"/>
</filter>
<filter id="filter1_d_129_15211" x="0" y="166" width="367" height="204" filterUnits="userSpaceOnUse" color-interpolation-filters="sRGB">
<feFlood flood-opacity="0" result="BackgroundImageFix"/>
<feColorMatrix in="SourceAlpha" type="matrix" values="0 0 0 0 0 0 0 0 0 0 0 0 0 0 0 0 0 0 127 0" result="hardAlpha"/>
<feOffset dy="4"/>
<feGaussianBlur stdDeviation="40"/>
<feComposite in2="hardAlpha" operator="out"/>
<feColorMatrix type="matrix" values="0 0 0 0 0.654902 0 0 0 0 0.662745 0 0 0 0 0.717647 0 0 0 0.25 0"/>
<feBlend mode="normal" in2="BackgroundImageFix" result="effect1_dropShadow_129_15211"/>
<feBlend mode="normal" in="SourceGraphic" in2="effect1_dropShadow_129_15211" result="shape"/>
</filter>
<filter id="filter2_d_129_15211" x="211" y="0" width="180" height="180" filterUnits="userSpaceOnUse" color-interpolation-filters="sRGB">
<feFlood flood-opacity="0" result="BackgroundImageFix"/>
<feColorMatrix in="SourceAlpha" type="matrix" values="0 0 0 0 0 0 0 0 0 0 0 0 0 0 0 0 0 0 127 0" result="hardAlpha"/>
<feOffset dy="4"/>
<feGaussianBlur stdDeviation="30"/>
<feComposite in2="hardAlpha" operator="out"/>
<feColorMatrix type="matrix" values="0 0 0 0 0.694118 0 0 0 0 0.721569 0 0 0 0 0.784314 0 0 0 0.25 0"/>
<feBlend mode="normal" in2="BackgroundImageFix" result="effect1_dropShadow_129_15211"/>
<feBlend mode="normal" in="SourceGraphic" in2="effect1_dropShadow_129_15211" result="shape"/>
</filter>
<clipPath id="clip0_129_15211">
<rect width="32" height="32" fill="white" transform="translate(168 140)"/>
</clipPath>
<clipPath id="clip1_129_15211">
<rect width="32" height="32" fill="white" transform="translate(285 70)"/>
</clipPath>
</defs>
</svg>
