<svg width="25" height="24" viewBox="0 0 25 24" fill="none" xmlns="http://www.w3.org/2000/svg">
<path d="M24.5001 12.27C24.5001 11.48 24.4286 10.73 24.306 10H12.7606V14.51H19.3711C19.0748 15.99 18.2063 17.24 16.919 18.09V21.09H20.8628C23.1719 19 24.5001 15.92 24.5001 12.27Z" fill="#4285F4"/>
<path d="M12.7608 24C16.0711 24 18.84 22.92 20.8629 21.09L16.9191 18.09C15.8157 18.81 14.4159 19.25 12.7608 19.25C9.56281 19.25 6.85528 17.14 5.88465 14.29H1.81824V17.38C3.83101 21.3 7.96894 24 12.7608 24Z" fill="#34A853"/>
<path d="M5.8843 14.2901C5.62887 13.5701 5.49605 12.8001 5.49605 12.0001C5.49605 11.2001 5.63909 10.4301 5.8843 9.71011V6.62012H1.81788C0.980081 8.24011 0.499878 10.0601 0.499878 12.0001C0.499878 13.9401 0.980081 15.7601 1.81788 17.3801L5.8843 14.2901Z" fill="#FBBC05"/>
<path d="M12.7608 4.74999C14.5692 4.74999 16.1835 5.35999 17.4606 6.54999L20.9549 3.12999C18.8399 1.19 16.0711 0 12.7608 0C7.96894 0 3.83101 2.7 1.81824 6.61999L5.88465 9.70998C6.85528 6.85999 9.56281 4.74999 12.7608 4.74999Z" fill="#EA4335"/>
</svg>
