<svg width="44" height="44" viewBox="0 0 44 44" fill="none" xmlns="http://www.w3.org/2000/svg">
<rect width="44" height="44" rx="22" fill="#24E500"/>
<path d="M29.3333 17.1874C30.7256 17.1874 31.8542 16.0588 31.8542 14.6666C31.8542 13.2744 30.7256 12.1458 29.3333 12.1458C27.9411 12.1458 26.8125 13.2744 26.8125 14.6666C26.8125 16.0588 27.9411 17.1874 29.3333 17.1874Z" fill="white"/>
<path d="M28.4534 18.4708C27.0142 18.1591 25.8409 16.9858 25.5292 15.5466C25.41 14.9874 25.4009 14.4466 25.5017 13.9333C25.6209 13.3649 25.1992 12.8333 24.6125 12.8333H17.4167C14.8867 12.8333 12.8334 14.8866 12.8334 17.4166V23.7874C12.8334 26.3174 14.8867 28.3708 17.4167 28.3708H18.7917C19.0484 28.3708 19.3784 28.5358 19.525 28.7374L20.9 30.5616C21.505 31.3683 22.495 31.3683 23.1 30.5616L24.475 28.7374C24.6492 28.5083 24.915 28.3708 25.2084 28.3708H26.5925C29.1225 28.3708 31.1667 26.3266 31.1667 23.7966V19.3874C31.1667 18.8099 30.635 18.3883 30.0667 18.4983C29.5534 18.5899 29.0125 18.5899 28.4534 18.4708ZM18.3334 21.9999C17.82 21.9999 17.4167 21.5874 17.4167 21.0833C17.4167 20.5791 17.82 20.1666 18.3334 20.1666C18.8375 20.1666 19.25 20.5791 19.25 21.0833C19.25 21.5874 18.8467 21.9999 18.3334 21.9999ZM22 21.9999C21.4867 21.9999 21.0834 21.5874 21.0834 21.0833C21.0834 20.5791 21.4867 20.1666 22 20.1666C22.5042 20.1666 22.9167 20.5791 22.9167 21.0833C22.9167 21.5874 22.5134 21.9999 22 21.9999ZM25.6667 21.9999C25.1534 21.9999 24.75 21.5874 24.75 21.0833C24.75 20.5791 25.1534 20.1666 25.6667 20.1666C26.1709 20.1666 26.5834 20.5791 26.5834 21.0833C26.5834 21.5874 26.18 21.9999 25.6667 21.9999Z" fill="white"/>
</svg>
