<svg width="24" height="25" viewBox="0 0 24 25" fill="none" xmlns="http://www.w3.org/2000/svg">
<path d="M1.61971 10.99C3.58971 2.33 16.4197 2.34 18.3797 11C19.5297 16.08 16.3697 20.38 13.5997 23.04C11.5897 24.98 8.40971 24.98 6.38971 23.04C3.62971 20.38 0.469709 16.07 1.61971 10.99Z" fill="#24E500"/>
<g clip-path="url(#clip0_722_2414)">
<path d="M12 13.9299C13.7231 13.9299 15.12 12.5331 15.12 10.8099C15.12 9.08681 13.7231 7.68994 12 7.68994C10.2769 7.68994 8.88 9.08681 8.88 10.8099C8.88 12.5331 10.2769 13.9299 12 13.9299Z" stroke="#1D272F" stroke-width="1.5"/>
<path d="M3.62001 8.99C5.59001 0.330002 18.42 0.340003 20.38 9C21.53 14.08 18.37 18.38 15.6 21.04C13.59 22.98 10.41 22.98 8.39001 21.04C5.63001 18.38 2.47001 14.07 3.62001 8.99Z" stroke="#1D272F" stroke-width="1.5"/>
</g>
<defs>
<clipPath id="clip0_722_2414">
<rect width="24" height="24" fill="white" transform="translate(0 0.5)"/>
</clipPath>
</defs>
</svg>
