<svg width="25" height="25" viewBox="0 0 25 25" fill="none" xmlns="http://www.w3.org/2000/svg">
<path d="M22.433 18.6384H20.4715C20.3376 18.6384 20.212 18.697 20.1283 18.8002C19.933 19.0374 19.7237 19.2662 19.5033 19.4838C18.6018 20.3863 17.5339 21.1054 16.3588 21.6016C15.1413 22.1158 13.8328 22.3796 12.5111 22.3772C11.1746 22.3772 9.88 22.115 8.66348 21.6016C7.48834 21.1054 6.42047 20.3863 5.51895 19.4838C4.61581 18.5844 3.89567 17.5184 3.39841 16.3449C2.88223 15.1284 2.62274 13.8365 2.62274 12.5C2.62274 11.1635 2.88502 9.87166 3.39841 8.65514C3.89507 7.48048 4.60935 6.423 5.51895 5.51619C6.42855 4.60938 7.48602 3.8951 8.66348 3.39845C9.88 2.88505 11.1746 2.62278 12.5111 2.62278C13.8476 2.62278 15.1423 2.88226 16.3588 3.39845C17.5362 3.8951 18.5937 4.60938 19.5033 5.51619C19.7237 5.73662 19.9302 5.96541 20.1283 6.19979C20.212 6.30302 20.3404 6.36162 20.4715 6.36162H22.433C22.6088 6.36162 22.7176 6.1663 22.62 6.01842C20.4799 2.69253 16.7355 0.491079 12.4804 0.50224C5.79518 0.518981 0.435243 5.94588 0.502208 12.6228C0.569172 19.1936 5.92074 24.4978 12.5111 24.4978C16.755 24.4978 20.4827 22.2991 22.62 18.9816C22.7148 18.8337 22.6088 18.6384 22.433 18.6384ZM24.9135 12.3242L20.9542 9.19923C20.8063 9.08204 20.5915 9.18807 20.5915 9.37501V11.4955H11.8303C11.7076 11.4955 11.6071 11.596 11.6071 11.7188V13.2813C11.6071 13.404 11.7076 13.5045 11.8303 13.5045H20.5915V15.625C20.5915 15.812 20.8091 15.918 20.9542 15.8008L24.9135 12.6758C24.9402 12.6549 24.9617 12.6282 24.9766 12.5978C24.9914 12.5673 24.9991 12.5339 24.9991 12.5C24.9991 12.4661 24.9914 12.4327 24.9766 12.4022C24.9617 12.3718 24.9402 12.3451 24.9135 12.3242Z" fill="black"/>
</svg>
