<svg width="20" height="20" viewBox="0 0 20 20" fill="none" xmlns="http://www.w3.org/2000/svg">
<path d="M7.40001 3.83335C6.73334 0.950017 2.39168 0.941684 1.72501 3.83335C1.33334 5.52502 2.40834 6.95835 3.34168 7.85002C4.02501 8.49168 5.10001 8.49168 5.78334 7.85002C6.71668 6.95835 7.78334 5.52502 7.40001 3.83335ZM4.59168 5.16668C4.13334 5.16668 3.75834 4.79168 3.75834 4.33335C3.75834 3.87502 4.12501 3.50002 4.58334 3.50002H4.59168C5.05834 3.50002 5.42501 3.87502 5.42501 4.33335C5.42501 4.79168 5.05834 5.16668 4.59168 5.16668Z" fill="#1D272F"/>
<path d="M18.2583 13.8334C17.5917 10.95 13.2333 10.9417 12.5583 13.8334C12.1667 15.525 13.2417 16.9584 14.1833 17.85C14.8667 18.4917 15.95 18.4917 16.6333 17.85C17.575 16.9584 18.65 15.525 18.2583 13.8334ZM15.4417 15.1667C14.9833 15.1667 14.6083 14.7917 14.6083 14.3334C14.6083 13.875 14.975 13.5 15.4333 13.5H15.4417C15.9 13.5 16.275 13.875 16.275 14.3334C16.275 14.7917 15.9 15.1667 15.4417 15.1667Z" fill="#1D272F"/>
<path d="M9.99994 16.4584H7.76661C6.79994 16.4584 5.95827 15.8751 5.62494 14.9751C5.28327 14.0751 5.53327 13.0834 6.25827 12.4417L12.9166 6.61675C13.3166 6.26675 13.3249 5.79175 13.2083 5.46675C13.0833 5.14175 12.7666 4.79175 12.2333 4.79175H9.99994C9.65827 4.79175 9.37494 4.50841 9.37494 4.16675C9.37494 3.82508 9.65827 3.54175 9.99994 3.54175H12.2333C13.1999 3.54175 14.0416 4.12508 14.3749 5.02508C14.7166 5.92508 14.4666 6.91675 13.7416 7.55841L7.08327 13.3834C6.68327 13.7334 6.67494 14.2084 6.79161 14.5334C6.91661 14.8584 7.23327 15.2084 7.76661 15.2084H9.99994C10.3416 15.2084 10.6249 15.4917 10.6249 15.8334C10.6249 16.1751 10.3416 16.4584 9.99994 16.4584Z" fill="#1D272F"/>
</svg>
