<svg width="24" height="25" viewBox="0 0 24 25" fill="none" xmlns="http://www.w3.org/2000/svg">
<path d="M14 6C17.33 6.18 19 7.45 19 12.15V18.33C19 22.45 18 24.51 13 24.51H7C2 24.51 1 22.45 1 18.33V12.15C1 7.45 2.67 6.19 6 6H14Z" fill="#24E500"/>
<g clip-path="url(#clip0_722_2471)">
<path d="M8 2.5V5.5" stroke="#1D272F" stroke-width="1.5" stroke-miterlimit="10" stroke-linecap="round" stroke-linejoin="round"/>
<path d="M16 2.5V5.5" stroke="#1D272F" stroke-width="1.5" stroke-miterlimit="10" stroke-linecap="round" stroke-linejoin="round"/>
<path d="M7 13.5H15" stroke="#1D272F" stroke-width="1.5" stroke-miterlimit="10" stroke-linecap="round" stroke-linejoin="round"/>
<path d="M7 17.5H12" stroke="#1D272F" stroke-width="1.5" stroke-miterlimit="10" stroke-linecap="round" stroke-linejoin="round"/>
<path d="M16 4C19.33 4.18 21 5.45 21 10.15V16.33C21 20.45 20 22.51 15 22.51H9C4 22.51 3 20.45 3 16.33V10.15C3 5.45 4.67 4.19 8 4H16Z" stroke="#1D272F" stroke-width="1.5" stroke-miterlimit="10" stroke-linecap="round" stroke-linejoin="round"/>
</g>
<defs>
<clipPath id="clip0_722_2471">
<rect width="24" height="24" fill="white" transform="translate(0 0.5)"/>
</clipPath>
</defs>
</svg>
