<svg width="18" height="18" viewBox="0 0 18 18" fill="none" xmlns="http://www.w3.org/2000/svg">
<path d="M9 0.666748C4.40833 0.666748 0.666664 4.40841 0.666664 9.00008C0.666664 13.5917 4.40833 17.3334 9 17.3334C13.5917 17.3334 17.3333 13.5917 17.3333 9.00008C17.3333 4.40841 13.5917 0.666748 9 0.666748ZM12.625 11.9751C12.5083 12.1751 12.3 12.2834 12.0833 12.2834C11.975 12.2834 11.8667 12.2584 11.7667 12.1917L9.18333 10.6501C8.54166 10.2667 8.06666 9.42508 8.06666 8.68342V5.26675C8.06666 4.92508 8.35 4.64175 8.69166 4.64175C9.03333 4.64175 9.31666 4.92508 9.31666 5.26675V8.68342C9.31666 8.98341 9.56666 9.42508 9.825 9.57508L12.4083 11.1167C12.7083 11.2917 12.8083 11.6751 12.625 11.9751Z" fill="#168900"/>
</svg>
